<svg width="48" height="48" viewBox="0 0 48 48" fill="none" xmlns="http://www.w3.org/2000/svg">
<path d="M24 43C20.2422 43 16.5687 41.8857 13.4442 39.7979C10.3196 37.7102 7.88436 34.7428 6.4463 31.271C5.00823 27.7992 4.63197 23.9789 5.36509 20.2933C6.09821 16.6076 7.90778 13.2222 10.565 10.565C13.2222 7.90778 16.6077 6.09821 20.2933 5.36509C23.9789 4.63197 27.7992 5.00823 31.271 6.4463C34.7428 7.88436 37.7102 10.3196 39.7979 13.4442C41.8857 16.5687 43 20.2422 43 24L24 24L24 43Z" fill="#5367FF"/>
<path fill-rule="evenodd" clip-rule="evenodd" d="M24 33.5C26.4313 33.5 28.8625 32.5725 30.7175 30.7175C34.4275 27.0075 34.4275 20.9925 30.7175 17.2825C27.0075 13.5725 20.9925 13.5725 17.2825 17.2825C15.4275 19.1375 14.5 21.5687 14.5 24V24.0023V33.5H24Z" fill="#00FFC4"/>
</svg>
